<svg width="32" height="34" viewBox="0 0 32 34" fill="none" xmlns="http://www.w3.org/2000/svg">
<path d="M17.0831 18.33C17.3031 18.33 17.4964 18.3267 17.6631 18.32C17.8364 18.3067 17.9797 18.2867 18.0931 18.26V16.71C18.0264 16.6767 17.9164 16.65 17.7631 16.63C17.6164 16.6033 17.4364 16.59 17.2231 16.59C17.0831 16.59 16.9331 16.6 16.7731 16.62C16.6197 16.64 16.4764 16.6833 16.3431 16.75C16.2164 16.81 16.1097 16.8967 16.0231 17.01C15.9364 17.1167 15.8931 17.26 15.8931 17.44C15.8931 17.7733 15.9997 18.0067 16.2131 18.14C16.4264 18.2667 16.7164 18.33 17.0831 18.33ZM17.0031 13.67C17.3764 13.67 17.6897 13.72 17.9431 13.82C18.2031 13.9133 18.4097 14.05 18.5631 14.23C18.7231 14.4033 18.8364 14.6133 18.9031 14.86C18.9697 15.1 19.0031 15.3667 19.0031 15.66V18.91C18.9231 18.9233 18.8097 18.9433 18.6631 18.97C18.5231 18.99 18.3631 19.01 18.1831 19.03C18.0031 19.05 17.8064 19.0667 17.5931 19.08C17.3864 19.1 17.1797 19.11 16.9731 19.11C16.6797 19.11 16.4097 19.08 16.1631 19.02C15.9164 18.96 15.7031 18.8667 15.5231 18.74C15.3431 18.6067 15.2031 18.4333 15.1031 18.22C15.0031 18.0067 14.9531 17.75 14.9531 17.45C14.9531 17.1633 15.0097 16.9167 15.1231 16.71C15.2431 16.5033 15.4031 16.3367 15.6031 16.21C15.8031 16.0833 16.0364 15.99 16.3031 15.93C16.5697 15.87 16.8497 15.84 17.1431 15.84C17.2364 15.84 17.3331 15.8467 17.4331 15.86C17.5331 15.8667 17.6264 15.88 17.7131 15.9C17.8064 15.9133 17.8864 15.9267 17.9531 15.94C18.0197 15.9533 18.0664 15.9633 18.0931 15.97V15.71C18.0931 15.5567 18.0764 15.4067 18.0431 15.26C18.0097 15.1067 17.9497 14.9733 17.8631 14.86C17.7764 14.74 17.6564 14.6467 17.5031 14.58C17.3564 14.5067 17.1631 14.47 16.9231 14.47C16.6164 14.47 16.3464 14.4933 16.1131 14.54C15.8864 14.58 15.7164 14.6233 15.6031 14.67L15.4931 13.9C15.6131 13.8467 15.8131 13.7967 16.0931 13.75C16.3731 13.6967 16.6764 13.67 17.0031 13.67ZM21.4777 19H20.5477V13.8H21.4777V19ZM21.0077 12.86C20.841 12.86 20.6977 12.8067 20.5777 12.7C20.4643 12.5867 20.4077 12.4367 20.4077 12.25C20.4077 12.0633 20.4643 11.9167 20.5777 11.81C20.6977 11.6967 20.841 11.64 21.0077 11.64C21.1743 11.64 21.3143 11.6967 21.4277 11.81C21.5477 11.9167 21.6077 12.0633 21.6077 12.25C21.6077 12.4367 21.5477 12.5867 21.4277 12.7C21.3143 12.8067 21.1743 12.86 21.0077 12.86Z" fill="white"/>
<path d="M3.06888 13.5364C1.37364 13.5364 0 14.9101 0 16.6053C0 18.2999 1.37364 19.6737 3.06888 19.6737C4.76347 19.6737 6.13727 18.2999 6.13727 16.6053C6.13727 14.9099 4.76363 13.5364 3.06888 13.5364ZM24.9802 27.4841C23.5123 28.3314 23.0099 30.2075 23.8569 31.6747C24.7045 33.1426 26.5804 33.6454 28.0482 32.798C29.5156 31.9508 30.0184 30.0747 29.171 28.607C28.3238 27.1398 26.4475 26.6368 24.9802 27.4841ZM9.73469 16.6048C9.73469 13.572 11.2418 10.8931 13.5465 9.27099L11.3029 5.51285C8.61729 7.30718 6.61959 10.0503 5.78973 13.263C6.75906 14.0531 7.37842 15.2563 7.37842 16.6052C7.37842 17.9537 6.75906 19.1569 5.78956 19.9468C6.61926 23.1599 8.61712 25.903 11.3028 27.6972L13.5465 23.9387C11.2418 22.3169 9.73469 19.6382 9.73469 16.6048ZM18.699 7.64046C23.3822 7.64046 27.2237 11.2312 27.6264 15.8098L32 15.7459C31.7848 12.3655 30.3082 9.32986 28.0388 7.09878C26.8721 7.53958 25.5243 7.47277 24.3593 6.80005C23.193 6.12669 22.4611 4.9908 22.2606 3.75808C21.1267 3.44427 19.9332 3.27317 18.6992 3.27317C16.5769 3.27317 14.5719 3.77138 12.7909 4.65363L14.9229 8.47454C16.0706 7.94049 17.3496 7.64046 18.699 7.64046ZM18.699 25.5694C17.3494 25.5694 16.0706 25.2694 14.9227 24.7353L12.7904 28.5565C14.5716 29.4385 16.5768 29.9368 18.699 29.9368C19.933 29.9368 21.1265 29.7657 22.2606 29.4519C22.4611 28.2192 23.1931 27.0833 24.3597 26.4095C25.5246 25.7371 26.8724 25.6703 28.0391 26.1112C30.3083 23.88 31.785 20.8443 31.9998 17.4639L27.6262 17.4C27.2239 21.9793 23.3822 25.5694 18.699 25.5694ZM24.9797 5.72546C26.4474 6.57317 28.3236 6.07025 29.1707 4.60303C30.0182 3.13516 29.5158 1.25908 28.0479 0.411543C26.5804 -0.435674 24.7043 0.0670767 23.8568 1.53495C23.0095 3.00217 23.5123 4.87841 24.9797 5.72546Z" fill="#E95420"/>
</svg>
