<svg width="1476" height="406" viewBox="0 0 1476 406" fill="none" xmlns="http://www.w3.org/2000/svg">
<path d="M135.128 405.68C111.917 405.68 91.7787 402.096 74.712 394.928C57.6453 387.76 43.6507 378.032 32.728 365.744C21.8053 353.115 13.6133 338.267 8.152 321.2C3.032 304.133 0.472 285.701 0.472 265.904V43.184H50.136V260.272C50.136 295.771 57.9867 321.541 73.688 337.584C89.3893 353.627 109.869 361.648 135.128 361.648C147.757 361.648 159.192 359.771 169.432 356.016C180.013 351.92 189.059 345.776 196.568 337.584C204.077 329.392 209.88 318.981 213.976 306.352C218.072 293.381 220.12 278.021 220.12 260.272V43.184H269.784V265.904C269.784 285.701 267.053 304.133 261.592 321.2C256.472 338.267 248.28 353.115 237.016 365.744C226.093 378.032 212.099 387.76 195.032 394.928C178.307 402.096 158.339 405.68 135.128 405.68ZM400.076 143.536C405.879 139.781 414.583 135.856 426.188 131.76C438.135 127.664 451.788 125.616 467.148 125.616C486.263 125.616 503.159 129.029 517.836 135.856C532.855 142.683 545.484 152.24 555.724 164.528C565.964 176.816 573.644 191.493 578.764 208.56C584.225 225.627 586.956 244.4 586.956 264.88C586.956 286.384 583.713 305.84 577.228 323.248C571.084 340.315 562.209 354.821 550.604 366.768C538.999 378.715 525.004 387.931 508.62 394.416C492.236 400.901 473.804 404.144 453.324 404.144C431.137 404.144 411.511 402.608 394.444 399.536C377.377 396.464 363.383 393.392 352.46 390.32V8.87997L400.076 0.687988V143.536ZM400.076 356.528C404.855 357.893 411.511 359.259 420.044 360.624C428.919 361.648 439.841 362.16 452.812 362.16C478.412 362.16 498.892 353.797 514.252 337.072C529.612 320.005 537.292 295.941 537.292 264.88C537.292 251.227 535.927 238.427 533.196 226.48C530.465 214.533 526.028 204.293 519.884 195.76C513.74 186.885 505.719 180.059 495.82 175.28C486.263 170.16 474.657 167.6 461.004 167.6C448.033 167.6 436.087 169.819 425.164 174.256C414.241 178.693 405.879 183.301 400.076 188.08V356.528ZM653.96 139.44C664.883 136.709 679.389 133.808 697.48 130.736C715.571 127.664 736.392 126.128 759.944 126.128C781.107 126.128 798.685 129.2 812.68 135.344C826.675 141.147 837.768 149.509 845.96 160.432C854.493 171.013 860.467 183.813 863.88 198.832C867.293 213.851 869 230.405 869 248.496V398H821.384V258.736C821.384 242.352 820.189 228.357 817.8 216.752C815.752 205.147 812.168 195.76 807.048 188.592C801.928 181.424 795.101 176.304 786.568 173.232C778.035 169.819 767.453 168.112 754.824 168.112C749.704 168.112 744.413 168.283 738.952 168.624C733.491 168.965 728.2 169.477 723.08 170.16C718.301 170.501 713.864 171.013 709.768 171.696C706.013 172.379 703.283 172.891 701.576 173.232V398H653.96V139.44ZM992.504 131.76H1093.37V171.696H992.504V294.576C992.504 307.888 993.528 318.981 995.576 327.856C997.624 336.389 1000.7 343.216 1004.79 348.336C1008.89 353.115 1014.01 356.528 1020.15 358.576C1026.3 360.624 1033.46 361.648 1041.66 361.648C1055.99 361.648 1067.43 360.112 1075.96 357.04C1084.83 353.627 1090.98 351.237 1094.39 349.872L1103.61 389.296C1098.83 391.685 1090.47 394.587 1078.52 398C1066.57 401.755 1052.92 403.632 1037.56 403.632C1019.47 403.632 1004.45 401.413 992.504 396.976C980.899 392.197 971.512 385.2 964.344 375.984C957.176 366.768 952.056 355.504 948.984 342.192C946.253 328.539 944.888 312.837 944.888 295.088V57.52L992.504 49.328V131.76Z" fill="#E95420"/>
<path d="M1244.07 363.696C1255.34 363.696 1265.23 363.525 1273.77 363.184C1282.64 362.501 1289.98 361.477 1295.78 360.112V280.752C1292.37 279.045 1286.74 277.68 1278.89 276.656C1271.38 275.291 1262.16 274.608 1251.24 274.608C1244.07 274.608 1236.39 275.12 1228.2 276.144C1220.35 277.168 1213.01 279.387 1206.18 282.8C1199.7 285.872 1194.24 290.309 1189.8 296.112C1185.36 301.573 1183.14 308.912 1183.14 318.128C1183.14 335.195 1188.61 347.141 1199.53 353.968C1210.45 360.453 1225.3 363.696 1244.07 363.696ZM1239.98 125.104C1259.09 125.104 1275.13 127.664 1288.1 132.784C1301.42 137.563 1312 144.56 1319.85 153.776C1328.04 162.651 1333.84 173.403 1337.26 186.032C1340.67 198.32 1342.38 211.973 1342.38 226.992V393.392C1338.28 394.075 1332.48 395.099 1324.97 396.464C1317.8 397.488 1309.61 398.512 1300.39 399.536C1291.18 400.56 1281.11 401.413 1270.18 402.096C1259.6 403.12 1249.02 403.632 1238.44 403.632C1223.42 403.632 1209.6 402.096 1196.97 399.024C1184.34 395.952 1173.42 391.173 1164.2 384.688C1154.98 377.861 1147.82 368.987 1142.7 358.064C1137.58 347.141 1135.02 334 1135.02 318.64C1135.02 303.963 1137.92 291.333 1143.72 280.752C1149.86 270.171 1158.06 261.637 1168.3 255.152C1178.54 248.667 1190.48 243.888 1204.14 240.816C1217.79 237.744 1232.13 236.208 1247.14 236.208C1251.92 236.208 1256.87 236.549 1261.99 237.232C1267.11 237.573 1271.89 238.256 1276.33 239.28C1281.11 239.963 1285.2 240.645 1288.62 241.328C1292.03 242.011 1294.42 242.523 1295.78 242.864V229.552C1295.78 221.701 1294.93 214.021 1293.22 206.512C1291.52 198.661 1288.45 191.835 1284.01 186.032C1279.57 179.888 1273.43 175.109 1265.58 171.696C1258.07 167.941 1248.17 166.064 1235.88 166.064C1220.18 166.064 1206.35 167.259 1194.41 169.648C1182.8 171.696 1174.1 173.915 1168.3 176.304L1162.66 136.88C1168.81 134.149 1179.05 131.589 1193.38 129.2C1207.72 126.469 1223.25 125.104 1239.98 125.104ZM1469.08 398H1421.46V131.76H1469.08V398ZM1445.01 83.632C1436.48 83.632 1429.14 80.9013 1423 75.44C1417.19 69.6373 1414.29 61.9573 1414.29 52.4C1414.29 42.8427 1417.19 35.3333 1423 29.872C1429.14 24.0693 1436.48 21.168 1445.01 21.168C1453.55 21.168 1460.71 24.0693 1466.52 29.872C1472.66 35.3333 1475.73 42.8427 1475.73 52.4C1475.73 61.9573 1472.66 69.6373 1466.52 75.44C1460.71 80.9013 1453.55 83.632 1445.01 83.632Z" fill="#5E2750"/>
</svg>
